<svg xmlns="http://www.w3.org/2000/svg" xml:space="preserve" version="1.1">
<defs>
    <symbol
      id="arrow-left"
      viewBox="0 0 24 24"
      fill="none"
      stroke="currentColor"
      stroke-width="2"
      stroke-linecap="round"
      stroke-linejoin="round"
    >
  <line x1="19" y1="12" x2="5" y2="12" />
  <polyline points="12 19 5 12 12 5" />
</symbol>
    <symbol
      id="arrow-right"
      viewBox="0 0 24 24"
      fill="none"
      stroke="currentColor"
      stroke-width="2"
      stroke-linecap="round"
      stroke-linejoin="round"
    >
      <line x1="5" y1="12" x2="19" y2="12" />
      <polyline points="12 5 19 12 12 19" />
    </symbol>
        <symbol id="updown" viewbox="0 -10 100 110">
      <g>
        <path
          style="fill-opacity: var(--up-opacity, 1); fill: var(--up-color, #888888);"
          d="M1.5 6.5l6 -6 5.962 6c-0.984,0 -4.962,0 -11.962,0z"
        />
        <path
          style="fill-opacity: var(--down-opacity, 1); fill: var(--down-color, #888888);"
          d="M13.5 9.5l-6 6 -6 -6c0,0 12,0 12,0z"
        />
      </g>
    </symbol>
    <symbol
      id="check"
      viewBox="0 0 24 24"
      fill="none"
      stroke="currentColor"
      stroke-width="2"
      stroke-linecap="round"
      stroke-linejoin="round"
    >
  <polyline points="20 6 9 17 4 12" />
</symbol>
<symbol
      id="edit"
      viewBox="0 0 24 24"
      fill="none"
      stroke="currentColor"
      stroke-width="2"
      stroke-linecap="round"
      stroke-linejoin="round"
    >
  <path d="M17 3a2.828 2.828 0 1 1 4 4L7.5 20.5 2 22l1.5-5.5L17 3z" />
</symbol>
<symbol
      id="plus"
      viewBox="0 0 24 24"
      fill="none"
      stroke="currentColor"
      stroke-width="2"
      stroke-linecap="round"
      stroke-linejoin="round"
    >
  <line x1="12" y1="5" x2="12" y2="19" />
  <line x1="5" y1="12" x2="19" y2="12" />
</symbol>
<symbol
      id="settings"
      viewBox="0 0 24 24"
      fill="none"
      stroke="currentColor"
      stroke-width="2"
      stroke-linecap="round"
      stroke-linejoin="round"
    >
  <path
        d="M12.22 2h-.44a2 2 0 0 0-2 2v.18a2 2 0 0 1-1 1.73l-.43.25a2 2 0 0 1-2 0l-.15-.08a2 2 0 0 0-2.73.73l-.22.38a2 2 0 0 0 .73 2.73l.15.1a2 2 0 0 1 1 1.72v.51a2 2 0 0 1-1 1.74l-.15.09a2 2 0 0 0-.73 2.73l.22.38a2 2 0 0 0 2.73.73l.15-.08a2 2 0 0 1 2 0l.43.25a2 2 0 0 1 1 1.73V20a2 2 0 0 0 2 2h.44a2 2 0 0 0 2-2v-.18a2 2 0 0 1 1-1.73l.43-.25a2 2 0 0 1 2 0l.15.08a2 2 0 0 0 2.73-.73l.22-.39a2 2 0 0 0-.73-2.73l-.15-.08a2 2 0 0 1-1-1.74v-.5a2 2 0 0 1 1-1.74l.15-.09a2 2 0 0 0 .73-2.73l-.22-.38a2 2 0 0 0-2.73-.73l-.15.08a2 2 0 0 1-2 0l-.43-.25a2 2 0 0 1-1-1.73V4a2 2 0 0 0-2-2z"
      />
  <circle cx="12" cy="12" r="3" />
</symbol>
          <symbol
      id="x"
      viewBox="0 0 24 24"
      stroke="currentColor"
      stroke-width="2"
      stroke-linecap="round"
      stroke-linejoin="round"
    >
      <line x1="18" y1="6" x2="6" y2="18" />
      <line x1="6" y1="6" x2="18" y2="18" />
    </symbol>

    <symbol id="user" viewBox="0 0 448 512">
    <path
        d="M224 256A128 128 0 1 0 224 0a128 128 0 1 0 0 256zm-45.7 48C79.8 304 0 383.8 0 482.3C0 498.7 13.3 512 29.7 512H418.3c16.4 0 29.7-13.3 29.7-29.7C448 383.8 368.2 304 269.7 304H178.3z"
      />
    </symbol>
    <symbol
      id="map"
      viewBox="0 0 24 24"
      fill="none"
      stroke="currentColor"
      stroke-width="2"
      stroke-linecap="round"
      stroke-linejoin="round"
      class="lucide lucide-git-branch-plus"
    ><path d="M6 3v12" /><path d="M18 9a3 3 0 1 0 0-6 3 3 0 0 0 0 6z" /><path
        d="M6 21a3 3 0 1 0 0-6 3 3 0 0 0 0 6z"
      /><path d="M15 6a9 9 0 0 0-9 9" /><path d="M18 15v6" /><path d="M21 18h-6" /></symbol>
      <symbol
      id="flag"
      viewBox="0 0 24 24"
      fill="none"
      stroke="currentColor"
      stroke-width="2"
      stroke-linecap="round"
      stroke-linejoin="round"
      class="lucide lucide-flag"
    ><path d="M4 15s1-1 4-1 5 2 8 2 4-1 4-1V3s-1 1-4 1-5-2-8-2-4 1-4 1z" /><line
        x1="4"
        x2="4"
        y1="22"
        y2="15"
      /></symbol>
      <symbol
      id="unapprove"
      viewBox="0 0 24 24"
      fill="none"
      stroke="currentColor"
      stroke-width="2"
      stroke-linecap="round"
      stroke-linejoin="round"
      class="lucide lucide-flag-off"
    ><path d="M8 2c3 0 5 2 8 2s4-1 4-1v11" /><path d="M4 22V4" /><path d="M4 15s1-1 4-1 5 2 8 2" /><line
        x1="2"
        x2="22"
        y1="2"
        y2="22"
      /></symbol>
    <symbol
      id="trash"
      viewBox="0 0 24 24"
      fill="none"
      stroke="currentColor"
      stroke-width="2"
      stroke-linecap="round"
      stroke-linejoin="round"
      class="lucide lucide-trash-2"
    ><path d="M3 6h18" /><path d="M19 6v14c0 1-1 2-2 2H7c-1 0-2-1-2-2V6" /><path
        d="M8 6V4c0-1 1-2 2-2h4c1 0 2 1 2 2v2"
      /><line x1="10" x2="10" y1="11" y2="17" /><line x1="14" x2="14" y1="11" y2="17" /></symbol>
      <symbol id="download" viewBox="0 0 24 24" fill="none" stroke="currentColor" stroke-width="2" stroke-linecap="round" stroke-linejoin="round" class="lucide lucide-download">
        <path d="M21 15v4a2 2 0 0 1-2 2H5a2 2 0 0 1-2-2v-4"></path>
        <polyline points="7 10 12 15 17 10"></polyline>
        <line x1="12" x2="12" y1="15" y2="3"></line>
      </symbol>
      <symbol id="EQUAL" viewBox="0 0 24 24" fill="none" stroke="currentColor" stroke-width="2" stroke-linecap="round" stroke-linejoin="round" class="lucide lucide-circle-equal"><path d="M7 10h10"></path><path d="M7 14h10"></path><circle cx="12" cy="12" r="10"></circle></symbol>
      <symbol id="upload" viewBox="0 0 24 24" fill="none" stroke="currentColor" stroke-width="2" stroke-linecap="round" stroke-linejoin="round" class="lucide lucide-upload"><path d="M21 15v4a2 2 0 0 1-2 2H5a2 2 0 0 1-2-2v-4"></path><polyline points="17 8 12 3 7 8"></polyline><line x1="12" x2="12" y1="3" y2="15"></line></symbol>
      <symbol id="eraser" viewBox="0 0 24 24" fill="none" stroke="currentColor" stroke-width="2" stroke-linecap="round" stroke-linejoin="round" class="lucide lucide-eraser"><path d="m7 21-4.3-4.3c-1-1-1-2.5 0-3.4l9.6-9.6c1-1 2.5-1 3.4 0l5.6 5.6c1 1 1 2.5 0 3.4L13 21"></path><path d="M22 21H7"></path><path d="m5 11 9 9"></path></symbol>
      <symbol id="filter" viewBox="0 0 24 24" fill="none" stroke="currentColor" stroke-width="2" stroke-linecap="round" stroke-linejoin="round" class="lucide lucide-filter"><polygon points="22 3 2 3 10 12.46 10 19 14 21 14 12.46 22 3"></polygon></symbol>
      <symbol id="info" viewBox="0 0 24 24" fill="none" stroke="currentColor" stroke-width="2" stroke-linecap="round" stroke-linejoin="round" class="lucide lucide-info"><circle cx="12" cy="12" r="10"></circle><path d="M12 16v-4"></path><path d="M12 8h.01"></path></symbol>
      <symbol id="search" viewBox="0 -960 960 960"><path d="M796-121 533-384q-30 26-69.959 40.5T378-329q-108.162 0-183.081-75Q120-479 120-585t75-181q75-75 181.5-75t181 75Q632-691 632-584.85 632-542 618-502q-14 40-42 75l264 262-44 44ZM377-389q81.25 0 138.125-57.5T572-585q0-81-56.875-138.5T377-781q-82.083 0-139.542 57.5Q180-666 180-585t57.458 138.5Q294.917-389 377-389Z"/></symbol>
      <symbol id="chevrons-left" viewBox="0 0 24 24" fill="none" stroke="currentColor" stroke-width="2" stroke-linecap="round" stroke-linejoin="round" class="lucide lucide-chevrons-left"><polyline points="11 17 6 12 11 7"></polyline><polyline points="18 17 13 12 18 7"></polyline></symbol>
      <symbol id="chevrons-right" viewBox="0 0 24 24" fill="none" stroke="currentColor" stroke-width="2" stroke-linecap="round" stroke-linejoin="round" class="lucide lucide-chevrons-right"><polyline points="13 17 18 12 13 7"></polyline><polyline points="6 17 11 12 6 7"></polyline></symbol>
</defs>
</svg>
